<mxfile host="app.diagrams.net" modified="2022-12-16T21:28:29.116Z" agent="5.0 (X11)" etag="_uZnJMd6X1c9afudMQlA" version="20.7.4" type="github">
  <diagram name="Page-1" id="52a04d89-c75d-2922-d76d-85b35f80e030">
    <mxGraphModel dx="662" dy="652" grid="1" gridSize="10" guides="1" tooltips="1" connect="1" arrows="1" fold="1" page="1" pageScale="1" pageWidth="1100" pageHeight="850" background="none" math="0" shadow="0">
      <root>
        <mxCell id="0" />
        <mxCell id="1" parent="0" />
        <mxCell id="_Ksovf9XrUezm23EPMSl-1" value="&lt;div&gt;start&lt;/div&gt;&lt;div&gt;Калькулятор запущен&lt;br&gt;&lt;/div&gt;" style="rounded=0;whiteSpace=wrap;html=1;fillColor=#d5e8d4;strokeColor=#82b366;" vertex="1" parent="1">
          <mxGeometry x="500" y="30" width="120" height="60" as="geometry" />
        </mxCell>
        <mxCell id="_Ksovf9XrUezm23EPMSl-2" value="" style="endArrow=classic;html=1;rounded=0;exitX=0.5;exitY=1;exitDx=0;exitDy=0;" edge="1" parent="1" source="_Ksovf9XrUezm23EPMSl-1">
          <mxGeometry width="50" height="50" relative="1" as="geometry">
            <mxPoint x="520" y="460" as="sourcePoint" />
            <mxPoint x="560" y="120" as="targetPoint" />
          </mxGeometry>
        </mxCell>
        <mxCell id="_Ksovf9XrUezm23EPMSl-3" value="&lt;div&gt;ввод числа&lt;/div&gt;&lt;div&gt;q1&lt;br&gt;&lt;/div&gt;" style="rounded=1;whiteSpace=wrap;html=1;" vertex="1" parent="1">
          <mxGeometry x="500" y="120" width="120" height="60" as="geometry" />
        </mxCell>
        <mxCell id="_Ksovf9XrUezm23EPMSl-4" value="&lt;div&gt;&amp;nbsp;Выбор номера операции&lt;/div&gt;&lt;div&gt;v:&lt;/div&gt;&lt;div&gt;1: +&lt;/div&gt;&lt;div&gt;2: -&lt;/div&gt;&lt;div&gt;3: / &lt;br&gt;&lt;/div&gt;&lt;div&gt;4: * &lt;br&gt;&lt;/div&gt;&lt;div&gt;&lt;br&gt;&lt;/div&gt;" style="rounded=0;whiteSpace=wrap;html=1;" vertex="1" parent="1">
          <mxGeometry x="475" y="200" width="170" height="120" as="geometry" />
        </mxCell>
        <mxCell id="_Ksovf9XrUezm23EPMSl-5" value="" style="endArrow=classic;html=1;rounded=0;exitX=0.5;exitY=1;exitDx=0;exitDy=0;entryX=0.5;entryY=0;entryDx=0;entryDy=0;" edge="1" parent="1" source="_Ksovf9XrUezm23EPMSl-3" target="_Ksovf9XrUezm23EPMSl-4">
          <mxGeometry width="50" height="50" relative="1" as="geometry">
            <mxPoint x="520" y="460" as="sourcePoint" />
            <mxPoint x="570" y="410" as="targetPoint" />
          </mxGeometry>
        </mxCell>
        <mxCell id="_Ksovf9XrUezm23EPMSl-7" value="&lt;div&gt;ввод числа&lt;/div&gt;&amp;nbsp;q2" style="rounded=1;whiteSpace=wrap;html=1;" vertex="1" parent="1">
          <mxGeometry x="500" y="340" width="120" height="60" as="geometry" />
        </mxCell>
        <mxCell id="_Ksovf9XrUezm23EPMSl-8" value="" style="endArrow=classic;html=1;rounded=0;exitX=0.5;exitY=1;exitDx=0;exitDy=0;" edge="1" parent="1" source="_Ksovf9XrUezm23EPMSl-4">
          <mxGeometry width="50" height="50" relative="1" as="geometry">
            <mxPoint x="520" y="460" as="sourcePoint" />
            <mxPoint x="560" y="340" as="targetPoint" />
          </mxGeometry>
        </mxCell>
        <mxCell id="_Ksovf9XrUezm23EPMSl-10" value="v==1" style="ellipse;whiteSpace=wrap;html=1;" vertex="1" parent="1">
          <mxGeometry x="500" y="425" width="120" height="80" as="geometry" />
        </mxCell>
        <mxCell id="_Ksovf9XrUezm23EPMSl-12" value="" style="endArrow=classic;html=1;rounded=0;exitX=1;exitY=0.5;exitDx=0;exitDy=0;" edge="1" parent="1" source="_Ksovf9XrUezm23EPMSl-10">
          <mxGeometry width="50" height="50" relative="1" as="geometry">
            <mxPoint x="620" y="490" as="sourcePoint" />
            <mxPoint x="710" y="465" as="targetPoint" />
          </mxGeometry>
        </mxCell>
        <mxCell id="_Ksovf9XrUezm23EPMSl-13" value="&amp;nbsp; да" style="text;html=1;strokeColor=none;fillColor=none;align=center;verticalAlign=middle;whiteSpace=wrap;rounded=0;" vertex="1" parent="1">
          <mxGeometry x="630" y="440" width="60" height="20" as="geometry" />
        </mxCell>
        <mxCell id="_Ksovf9XrUezm23EPMSl-15" value="" style="endArrow=classic;html=1;rounded=0;exitX=0.5;exitY=1;exitDx=0;exitDy=0;entryX=0.5;entryY=0;entryDx=0;entryDy=0;" edge="1" parent="1" source="_Ksovf9XrUezm23EPMSl-7" target="_Ksovf9XrUezm23EPMSl-10">
          <mxGeometry width="50" height="50" relative="1" as="geometry">
            <mxPoint x="520" y="460" as="sourcePoint" />
            <mxPoint x="570" y="410" as="targetPoint" />
          </mxGeometry>
        </mxCell>
        <mxCell id="_Ksovf9XrUezm23EPMSl-16" value="&amp;nbsp;r=q1+q2" style="shape=parallelogram;perimeter=parallelogramPerimeter;whiteSpace=wrap;html=1;fixedSize=1;" vertex="1" parent="1">
          <mxGeometry x="700" y="435" width="120" height="60" as="geometry" />
        </mxCell>
        <mxCell id="_Ksovf9XrUezm23EPMSl-17" value="нет" style="text;html=1;strokeColor=none;fillColor=none;align=center;verticalAlign=middle;whiteSpace=wrap;rounded=0;" vertex="1" parent="1">
          <mxGeometry x="440" y="460" width="60" height="20" as="geometry" />
        </mxCell>
        <mxCell id="_Ksovf9XrUezm23EPMSl-19" value="" style="endArrow=classic;html=1;rounded=0;exitX=0;exitY=0.5;exitDx=0;exitDy=0;" edge="1" parent="1" source="_Ksovf9XrUezm23EPMSl-10" target="_Ksovf9XrUezm23EPMSl-24">
          <mxGeometry width="50" height="50" relative="1" as="geometry">
            <mxPoint x="620" y="320" as="sourcePoint" />
            <mxPoint x="415.48" y="488.8599999999999" as="targetPoint" />
            <Array as="points" />
          </mxGeometry>
        </mxCell>
        <mxCell id="_Ksovf9XrUezm23EPMSl-20" value="" style="endArrow=classic;html=1;rounded=0;exitX=1;exitY=0.75;exitDx=0;exitDy=0;" edge="1" parent="1">
          <mxGeometry width="50" height="50" relative="1" as="geometry">
            <mxPoint x="446.1538461538462" y="541.5384615384614" as="sourcePoint" />
            <mxPoint x="520" y="540" as="targetPoint" />
            <Array as="points">
              <mxPoint x="500" y="540" />
            </Array>
          </mxGeometry>
        </mxCell>
        <mxCell id="_Ksovf9XrUezm23EPMSl-21" value="&amp;nbsp; да" style="text;html=1;strokeColor=none;fillColor=none;align=center;verticalAlign=middle;whiteSpace=wrap;rounded=0;" vertex="1" parent="1">
          <mxGeometry x="450" y="520" width="60" height="20" as="geometry" />
        </mxCell>
        <mxCell id="_Ksovf9XrUezm23EPMSl-22" value="&amp;nbsp;r=q1-q2" style="shape=parallelogram;perimeter=parallelogramPerimeter;whiteSpace=wrap;html=1;fixedSize=1;" vertex="1" parent="1">
          <mxGeometry x="510" y="520" width="120" height="60" as="geometry" />
        </mxCell>
        <mxCell id="_Ksovf9XrUezm23EPMSl-23" value="" style="endArrow=classic;html=1;rounded=0;entryX=0.761;entryY=0.038;entryDx=0;entryDy=0;entryPerimeter=0;" edge="1" parent="1" source="_Ksovf9XrUezm23EPMSl-24" target="_Ksovf9XrUezm23EPMSl-26">
          <mxGeometry width="50" height="50" relative="1" as="geometry">
            <mxPoint x="179.9999999999999" y="621.14" as="sourcePoint" />
            <mxPoint x="265" y="590" as="targetPoint" />
            <Array as="points" />
          </mxGeometry>
        </mxCell>
        <mxCell id="_Ksovf9XrUezm23EPMSl-24" value="v==2" style="ellipse;whiteSpace=wrap;html=1;" vertex="1" parent="1">
          <mxGeometry x="330" y="490" width="120" height="80" as="geometry" />
        </mxCell>
        <mxCell id="_Ksovf9XrUezm23EPMSl-25" value="нет" style="text;html=1;strokeColor=none;fillColor=none;align=center;verticalAlign=middle;whiteSpace=wrap;rounded=0;" vertex="1" parent="1">
          <mxGeometry x="270" y="560" width="60" height="20" as="geometry" />
        </mxCell>
        <mxCell id="_Ksovf9XrUezm23EPMSl-26" value="v==3" style="ellipse;whiteSpace=wrap;html=1;" vertex="1" parent="1">
          <mxGeometry x="200" y="590" width="120" height="80" as="geometry" />
        </mxCell>
        <mxCell id="_Ksovf9XrUezm23EPMSl-27" value="" style="endArrow=classic;html=1;rounded=0;exitX=1;exitY=0.75;exitDx=0;exitDy=0;" edge="1" parent="1">
          <mxGeometry width="50" height="50" relative="1" as="geometry">
            <mxPoint x="320.0038461538462" y="641.5384615384614" as="sourcePoint" />
            <mxPoint x="393.85" y="640" as="targetPoint" />
            <Array as="points">
              <mxPoint x="373.85" y="640" />
            </Array>
          </mxGeometry>
        </mxCell>
        <mxCell id="_Ksovf9XrUezm23EPMSl-29" value="&amp;nbsp;r=q1/q2" style="shape=parallelogram;perimeter=parallelogramPerimeter;whiteSpace=wrap;html=1;fixedSize=1;" vertex="1" parent="1">
          <mxGeometry x="390" y="610" width="120" height="60" as="geometry" />
        </mxCell>
        <mxCell id="_Ksovf9XrUezm23EPMSl-30" value="v==3" style="ellipse;whiteSpace=wrap;html=1;" vertex="1" parent="1">
          <mxGeometry x="60" y="680" width="120" height="80" as="geometry" />
        </mxCell>
        <mxCell id="_Ksovf9XrUezm23EPMSl-31" value="" style="endArrow=classic;html=1;rounded=0;exitX=0.039;exitY=0.725;exitDx=0;exitDy=0;entryX=1;entryY=0;entryDx=0;entryDy=0;exitPerimeter=0;" edge="1" parent="1" source="_Ksovf9XrUezm23EPMSl-26" target="_Ksovf9XrUezm23EPMSl-30">
          <mxGeometry width="50" height="50" relative="1" as="geometry">
            <mxPoint x="351.30793951290957" y="563.3721890338034" as="sourcePoint" />
            <mxPoint x="274.9999999999999" y="600" as="targetPoint" />
            <Array as="points" />
          </mxGeometry>
        </mxCell>
        <mxCell id="_Ksovf9XrUezm23EPMSl-32" value="&amp;nbsp;r=q1/q2" style="shape=parallelogram;perimeter=parallelogramPerimeter;whiteSpace=wrap;html=1;fixedSize=1;" vertex="1" parent="1">
          <mxGeometry x="260" y="710" width="120" height="60" as="geometry" />
        </mxCell>
        <mxCell id="_Ksovf9XrUezm23EPMSl-35" value="&amp;nbsp; да" style="text;html=1;strokeColor=none;fillColor=none;align=center;verticalAlign=middle;whiteSpace=wrap;rounded=0;" vertex="1" parent="1">
          <mxGeometry x="320" y="620" width="60" height="20" as="geometry" />
        </mxCell>
        <mxCell id="_Ksovf9XrUezm23EPMSl-36" value="&amp;nbsp; да" style="text;html=1;strokeColor=none;fillColor=none;align=center;verticalAlign=middle;whiteSpace=wrap;rounded=0;" vertex="1" parent="1">
          <mxGeometry x="190" y="700" width="60" height="20" as="geometry" />
        </mxCell>
        <mxCell id="_Ksovf9XrUezm23EPMSl-37" value="" style="endArrow=classic;html=1;rounded=0;exitX=0.969;exitY=0.767;exitDx=0;exitDy=0;exitPerimeter=0;" edge="1" parent="1" source="_Ksovf9XrUezm23EPMSl-30" target="_Ksovf9XrUezm23EPMSl-32">
          <mxGeometry width="50" height="50" relative="1" as="geometry">
            <mxPoint x="456.1538461538462" y="551.5384615384614" as="sourcePoint" />
            <mxPoint x="530" y="550" as="targetPoint" />
            <Array as="points" />
          </mxGeometry>
        </mxCell>
        <mxCell id="_Ksovf9XrUezm23EPMSl-38" value="stop" style="rounded=0;whiteSpace=wrap;html=1;fillColor=#f8cecc;strokeColor=#b85450;" vertex="1" parent="1">
          <mxGeometry x="610" y="740" width="100" height="30" as="geometry" />
        </mxCell>
        <mxCell id="_Ksovf9XrUezm23EPMSl-39" value="&amp;nbsp; Результат r" style="shape=hexagon;perimeter=hexagonPerimeter2;whiteSpace=wrap;html=1;fixedSize=1;fillColor=#fff2cc;strokeColor=#d6b656;" vertex="1" parent="1">
          <mxGeometry x="640" y="600" width="110" height="80" as="geometry" />
        </mxCell>
        <mxCell id="_Ksovf9XrUezm23EPMSl-40" value="" style="endArrow=classic;html=1;rounded=0;exitX=0.5;exitY=1;exitDx=0;exitDy=0;" edge="1" parent="1" source="_Ksovf9XrUezm23EPMSl-16">
          <mxGeometry width="50" height="50" relative="1" as="geometry">
            <mxPoint x="490" y="590" as="sourcePoint" />
            <mxPoint x="730" y="600" as="targetPoint" />
          </mxGeometry>
        </mxCell>
        <mxCell id="_Ksovf9XrUezm23EPMSl-41" value="" style="endArrow=classic;html=1;rounded=0;entryX=0.185;entryY=0.006;entryDx=0;entryDy=0;entryPerimeter=0;" edge="1" parent="1" target="_Ksovf9XrUezm23EPMSl-39">
          <mxGeometry width="50" height="50" relative="1" as="geometry">
            <mxPoint x="610" y="580" as="sourcePoint" />
            <mxPoint x="540" y="540" as="targetPoint" />
          </mxGeometry>
        </mxCell>
        <mxCell id="_Ksovf9XrUezm23EPMSl-42" value="" style="endArrow=classic;html=1;rounded=0;exitX=1;exitY=0.75;exitDx=0;exitDy=0;entryX=0;entryY=0.5;entryDx=0;entryDy=0;" edge="1" parent="1" source="_Ksovf9XrUezm23EPMSl-29" target="_Ksovf9XrUezm23EPMSl-39">
          <mxGeometry width="50" height="50" relative="1" as="geometry">
            <mxPoint x="490" y="590" as="sourcePoint" />
            <mxPoint x="540" y="540" as="targetPoint" />
            <Array as="points">
              <mxPoint x="640" y="640" />
            </Array>
          </mxGeometry>
        </mxCell>
        <mxCell id="_Ksovf9XrUezm23EPMSl-43" value="" style="endArrow=classic;html=1;rounded=0;exitX=1;exitY=0.5;exitDx=0;exitDy=0;" edge="1" parent="1" source="_Ksovf9XrUezm23EPMSl-32">
          <mxGeometry width="50" height="50" relative="1" as="geometry">
            <mxPoint x="490" y="590" as="sourcePoint" />
            <mxPoint x="660" y="680" as="targetPoint" />
          </mxGeometry>
        </mxCell>
        <mxCell id="_Ksovf9XrUezm23EPMSl-44" value="" style="endArrow=classic;html=1;rounded=0;exitX=0.5;exitY=1;exitDx=0;exitDy=0;" edge="1" parent="1" source="_Ksovf9XrUezm23EPMSl-39" target="_Ksovf9XrUezm23EPMSl-38">
          <mxGeometry width="50" height="50" relative="1" as="geometry">
            <mxPoint x="490" y="590" as="sourcePoint" />
            <mxPoint x="540" y="540" as="targetPoint" />
          </mxGeometry>
        </mxCell>
      </root>
    </mxGraphModel>
  </diagram>
</mxfile>
